<svg xmlns="http://www.w3.org/2000/svg" width="1600" height="1600" version="1" viewBox="0 0 1200 1200"><path d="M388.5 118.1c-1.6.5-5 1.1-7.5 1.3-2.5.3-4.5.5-4.5.6 0 .1-2 .3-4.5.4-2.5.2-6.5.9-9 1.6-2.5.7-5.9 1.4-7.7 1.6-1.8.1-4.2.8-5.4 1.5-1.2.6-3.6 1.3-5.3 1.6-1.7.3-4.2 1.1-5.6 1.8-1.4.7-5.6 2.9-9.5 4.8-11.9 5.9-20.8 12.4-31.9 23.2-6.9 6.8-15.6 16.7-15.6 17.8 0 .4-1.3 2.7-2.8 5-2.6 3.8-4.8 8.3-8.7 17.2-3.9 9.1-4.5 10.7-4.5 12.6 0 1.1-.6 3.2-1.4 4.7-.8 1.5-1.6 5.8-1.9 9.7-.3 3.8-.9 8.1-1.2 9.5-1 3.7-1.2 26-.3 30 .5 1.9 1 6.2 1.3 9.5.3 3.3.8 7.1 1.2 8.5.3 1.4.7 2.8.7 3.2.1.3.4 1 .9 1.4.4.4.7 1.7.7 2.9 0 5.9 13.6 35.3 19.5 42.1 1.9 2.1 3.5 4.4 3.5 5 0 1.6 29.4 31.4 30.9 31.4.6 0 1.1.4 1.1 1 0 .5.6 1 1.3 1 .8 0 2.2.9 3.1 1.9 1.8 2 21.6 12.1 23.6 12.1.6 0 2.8.9 4.9 2 2.1 1 4.1 1.7 4.4 1.4.3-.3 2.2.2 4.3 1.1 2.1.9 5.6 1.8 7.7 2.1 2.2.2 4.7.9 5.7 1.4 1 .5 4.2 1.2 7.2 1.6 2.9.3 7.5 1.2 10.2 1.9 4.4 1.1 21.7 1.2 25.6.2 4.7-1.2 6.9-1.7 10.1-2.1 2-.3 4.8-1 6.3-1.6 1.5-.5 3.7-1.2 4.9-1.4 5.9-1.1 22.5-7.6 28.7-11.2 1.4-.8 4.2-2.2 6.3-3.2 2-.9 3.7-2 3.7-2.4 0-.5.7-.8 1.5-.8s1.5-.4 1.5-.9c0-.4 1.7-2 3.8-3.3 6.1-4.2 26.8-24.8 32.2-32.3 8.5-11.7 15.7-28.6 17.6-41 .6-4.3 1.2-7 1.4-7 .4 0 1-4.6 1.7-13 1.5-17.8.5-50.5-1.7-57.5-.6-1.9-1.4-4.9-1.6-6.5-1.5-9-12.3-34.2-18.6-43.3-1.8-2.6-3.2-5-3.1-5.4.2-.4-4.4-5.3-10-11-7.7-7.7-12.1-11.2-17.6-14.1-3.9-2-7.8-3.7-8.6-3.7-.7 0-1.5-.4-1.7-.8-.1-.5-3.2-2.3-6.8-4-3.6-1.8-7.2-3.6-8-4.1-5.4-3.3-17.5-7-21.6-6.6-1.6.2-4.3.9-6 1.6-2.5 1-4.4 1-9.5-.1-7.5-1.5-31-2.1-35.4-.9z"/><path d="M895.4 254.7c-2.4.5-4.2 3.7-5 9.1-.3 2.1-1.2 5.5-1.9 7.7-1.9 5.6-3.7 12.6-4 15.2-.2 1.2-1 4.4-1.9 7-.9 2.6-1.8 6.8-2 9.3-.3 2.5-1.7 8.8-3.1 14-1.4 5.2-2.8 10.4-3 11.5-.2 1.1-1 4.7-1.9 8-.8 3.3-1.7 7.3-1.9 9-.3 1.6-1 4.2-1.5 5.6-.6 1.4-1.3 4.3-1.6 6.5-.4 2.1-1.2 5.7-1.8 7.9-.6 2.2-1.2 5.1-1.3 6.5-.2 1.4-1.7 8.6-3.4 16s-3.2 14.4-3.4 15.5c-.1 1.1-.6 2.5-.9 3.1-.4.6-1 3.3-1.3 6-.4 2.7-1.5 8.5-2.6 12.9-1 4.4-2.1 9.2-2.4 10.7-.3 1.6-.8 4-1.1 5.5-.3 1.6-.7 4.1-.8 5.8-.2 1.6-.9 4.2-1.5 5.7s-1.3 4.9-1.6 7.5c-.4 2.7-1 6.1-1.5 7.8-.4 1.6-1.8 7.7-3 13.5s-2.8 12.7-3.6 15.4c-.8 2.6-1.4 5.6-1.4 6.5 0 .9-1.1 5.5-2.5 10.2-4.5 14.7-7.5 26-7.5 27.9 0 3-3.9 4.8-11 4.9-3.6.1-8.1.3-10 .6-7.3.9-18.1 1.5-37 2-10.7.3-21.5.8-24 1-28.2 2.7-112.4 3.7-116.2 1.4-.7-.4-1.3-1.8-1.3-3s-1.2-3-2.6-4.1c-2.4-1.8-4.8-2-30.5-2.4-15.3-.3-30.4-.7-33.4-.9-6.8-.5-26.3-1.3-52-2.1-35.4-1-38.4-1.1-45-1.8-3.6-.3-9.9-.8-13.9-1-6.2-.4-8.2-1-11.5-3.3-4.3-3-14.5-15-14.6-17 0-.6-.3-1.3-.8-1.5-.9-.3-9.2-12.5-9.2-13.4 0-.3-2-3.1-4.3-6.2-3.6-4.8-9.7-14.2-14.2-22-.5-1-2.5-3.6-4.2-5.9-1.8-2.2-3.3-4.6-3.3-5.2 0-.6-.4-1.1-1-1.1-.5 0-1-.6-1-1.3 0-.8-.9-2.2-2-3.2-1-.9-1.8-2-1.7-2.4.1-.3-5.9-9.3-13.3-20-17.5-25.1-23.2-33.9-23.6-36.6-.1-.5-.3-2.1-.5-3.5-.5-3.1-1.6-4-5.1-4-3.1 0-3.6.5-4.2 5.1-.7 4.7-1.1 6.2-4.5 16.4-3.9 11.7-8.3 27.9-9.6 35-.6 3.6-1.3 7.1-2 10.5-.3 1.4-1 4.7-1.5 7.5-.6 2.7-1.3 6.1-1.6 7.5-.3 1.4-.8 4.1-1 6-.3 1.9-1.1 6.9-1.9 11-1.4 7.6-3 19.5-3.9 28.5-.3 2.7-.8 8.1-1.2 12-.4 3.8-.8 8.1-.9 9.5-.1 1.4-.5 4.5-.9 6.9-.5 2.4-1 7.4-1.1 11-.2 3.6-.4 6.6-.5 6.6-1.4 0-1.9 36.3-.5 37.3.6.4 2.3 2.3 3.9 4.2 3.7 4.5 14.5 12.6 21.9 16.5 3.5 1.9 6 3.9 6.6 5.5 1.1 2.9 6.4 20 7.6 24.5 1.2 4.5 1.2 4.5 1.4 4.7.2.2.4 1.4.7 2.8 1.1 6.6 6.7 21.3 8.9 23.5 2 2 15.3 7 21.5 8 2.5.4 5.4.9 6.5 1.2 1.1.2 4 .6 6.5.9 5.1.5 8.3 1 12 1.8 1.4.3 3.4.8 4.5 1 1.1.2 3.2.9 4.8 1.5 1.5.6 2.7.8 2.7.6 0-.2 1.1 0 2.6.5 3 1.2 5.8 1.7 14.4 2.5 13.2 1.3 25.8 3 33.5 4.5 2.8.6 6.4 1.2 8 1.4 1.7.3 4.4.7 6 .9 1.7.3 7.1.8 12 1.2 11.4.8 16.5 1.4 17.5 2 1.3.8 9.1 1.5 21.9 2 6.9.3 14.1 1 16.1 1.5 1.9.5 5.1 1.2 7 1.5 1.9.4 4 .8 4.5.9 6.7 1.6 13.1 2.6 18 3 6.1.5 16.6 3 19.7 4.7 1 .5 3 1.1 4.5 1.3 1.5.3 6 1.4 9.8 2.6 3.9 1.2 8 2.4 9.2 2.7 2.8.7 3.7 3.2 2.2 6.9-.6 1.6-1.2 3.8-1.4 4.9-1 6.1-2.7 17.6-3.1 21.5-.3 2.5-1.1 6.3-1.9 8.5-.8 2.2-2.3 7.4-3.5 11.5-1.2 4.1-2.5 8.4-3 9.5-.8 1.8-2.2 6.1-2.5 7.5-.1.3-1.3 4.5-2.9 9.5-1.5 4.9-3.3 11.2-4.1 14-.7 2.7-2.6 9.3-4 14.5-3 10.9-2.9 10.5-3.9 14.5-.4 1.6-1.4 5.2-2.2 8-.8 2.7-2.1 7.2-2.9 10-.8 2.7-2.2 7.4-3.1 10.3-.9 2.9-1.7 6.3-1.9 7.5-.4 2.5-3.8 13.9-5.4 18-.6 1.5-.9 2.7-.6 2.7.2 0-.3 1.9-1.1 4.2-.8 2.4-1.7 5.8-2 7.7-.3 1.9-1 4.5-1.5 5.9-.5 1.4-1.2 4-1.5 6-.8 4.8-2.1 10.7-2.4 10.7-.1 0-.8 2.9-1.5 6.5s-1.5 7.6-1.9 9c-.3 1.4-.9 3.8-1.2 5.5-.3 1.6-1.6 6.8-3 11.5-3.5 11.7-4 16.3-2 17.9 3.6 3 8.6-1.4 8.6-7.5 0-1.4.5-3.5 1.2-4.7 1.2-2.2 1.5-3.1 2.2-7.7.2-1.4.9-3.9 1.5-5.5.5-1.7 1.2-4.4 1.4-6 .3-1.7.9-4.8 1.5-7s1.3-5.4 1.6-7c.4-2.7 3.9-18 5.2-23 .3-1.1.7-3.1 1-4.5.3-1.4 1.1-4.3 1.9-6.5.8-2.2 1.7-5.2 1.9-6.7.2-1.4.9-3.5 1.5-4.6.5-1 1.3-3.1 1.6-4.5.3-1.5.7-3.9 1.1-5.4.3-1.5.7-3 1-3.5.3-.5.7-2.1 1-3.6.3-1.5 1.8-7 3.4-12.4 1.7-5.3 3-10.3 3-11.2 0-.9.4-2.4 1-3.4.8-1.4 4.1-13.1 5.5-19.2 1.3-5.7 3.8-14.9 4.6-17 1-2.7 2-6.7 2.1-8.8.1-.6.5-1.2 1-1.2.4 0 .9.6.9 1.2.3 3-.3 40.7-.7 44.3-.2 2.2-.7 11.6-1 21-.2 9.3-.6 21.5-.8 27-.3 5.5-.7 17.6-1.1 27-.3 9.3-.8 22.6-1.1 29.5-.3 6.9-.6 21.2-.8 31.9-.2 17.7-.1 19.6 1.6 21.3 2.6 2.6 5.7 2.3 6.8-.6.5-1.4.9-10 1-19.3.1-9.2.3-22.4.5-29.3.6-19.3 1.7-46.8 2.1-54 .2-3.6.6-14.6.8-24.5.3-9.9.7-23.9 1-31 .3-7.2.8-22.9 1.1-35 .5-21.5.8-25.5 1.9-30.5.3-1.3.8-4.2 1.2-6.5.3-2.2.7-4.2 1-4.4.4-.4-.5 164.4-1 181.4-.2 6-.7 25.4-1.1 43.1-.7 29.5-.6 32.4 1 35.8 1 2.1 3 4.3 4.4 4.9 1.4.6 8.2 1.2 15.1 1.3 6.9.1 13.1.3 13.8.3 1.7.1.8 8-2 16.5-2.5 7.8-2.7 14.2-.4 15.9 3.4 2.5 49 .7 51.7-2 1.5-1.5 1.8-4.6.6-6.1-1.7-2.1-4.8-11.3-5.4-15.7-.3-2.2-.9-4.8-1.4-5.7-1.3-2.3 1.1-3.4 8.9-4.1 3.4-.4 6.7-.9 7.3-1.3.6-.4 8.8-.8 18.3-1 9.4-.2 20-.7 23.6-1.2 3.6-.4 24.5-.7 46.5-.5 22 .1 42.7.3 46 .3 3.3 0 16.4-.2 29-.5 31.8-.8 83.6-1.2 85.7-.7 1.4.3 1.7 1.3 1.4 5.1-.4 4.5-4.7 22.6-6.5 27.3-1.8 4.9 3.1 8.5 9.1 6.7 1.8-.5 8.5-1.2 14.8-1.4 22.2-1 26-1.5 28.5-3.5 2.2-1.8 1.4-7.4-2-13.8-1.4-2.6-2.5-5.8-2.5-7.2 0-1.4-.7-3.8-1.5-5.4-2.5-4.8-1-5.4 13.2-5.5 7.6-.1 13.2-.6 14-1.2 1.5-1.3 1.7-5.9.4-10.9-2.4-9.1-3.8-44.8-4.6-123-.5-53-1.8-106.9-3-126.5-.3-5-.7-13.3-.9-18.5-.7-15.1-.8-79.2-.1-82 .3-1.4.5-8.1.4-15 0-6.9 0-17.9.1-24.5.1-6.6.2-14.5.2-17.5.1-3 0-7.1-.1-9 0-1.9.1-6.7.4-10.5.3-3.9.7-9.7.8-13 .6-9.6 1.8-16.8 3.5-19.3 1.3-2 1.3-2.4-.1-4-1.5-1.6-4.7-1.7-40.9-1.6-21.6.1-42.9.4-47.3.8-4.4.3-34.5.8-67 1.1-32.4.3-61.4.6-64.3.7-7.8.1-8.9-1.7-1.7-2.6 4.5-.6 13.9-4.9 15.2-6.9 1.2-2 7.2-5.9 8.1-5.3 1 .6 4.4-2.8 5.9-5.9.6-1.1 1.5-4.8 2.2-8.2.6-3.4 1.8-7.4 2.6-9 .8-1.5 1.7-4.3 2-6.2.3-1.9 1-4.1 1.5-5 .4-.9 1.1-4.6 1.4-8.3.3-3.6.7-7.6 1-8.9.3-1.3.8-3.5 1-4.9.2-1.4 1-4.8 1.6-7.5.7-2.8 1.4-5.7 1.5-6.5.7-4.8 1.9-10 3-13.5.7-2.2 1.6-5.7 1.9-7.9.4-2.1.9-4.2 1.2-4.7.6-1 1.1-3.5 2-8.9.3-1.9 1-5.3 1.6-7.5.6-2.2 1.2-5.3 1.4-6.9.2-1.6.9-4.7 1.5-7 .7-2.2 1.4-5.6 1.6-7.5.2-1.9.8-4.2 1.4-5.2.5-1.1.7-1.9.4-1.9-.3 0-.2-.8.4-1.8.5-.9 1.1-3.6 1.5-6 .3-2.4.8-4.7 1-5.1.3-.4.8-2.3 1.1-4.2.3-1.9 1.2-5.9 2-8.9.7-3 1.6-6.9 1.9-8.5.3-1.7.7-4.1 1.1-5.5 1-4.4 1.7-8.4 2-11 .1-1.4.8-5.2 1.5-8.5s1.4-6.9 1.6-8c1.4-9.1 3.6-19 5-22.3.8-1.8 1.7-5.2 1.9-7.4.3-2.3.8-4.5 1.2-5 .3-.6.7-2.7 1-4.7.2-2 1.1-6.1 2-9.1.8-3 1.7-6.6 1.9-7.9.3-1.3 1.8-7 3.4-12.6 3.8-13.1 3.9-18.9.4-22.1-1.4-1.3-2.6-2.3-2.7-2.3-.1.1-1.2.4-2.3.6zM350.5 424.1c6.2 9.1 9.6 14 13.6 19.9 1.5 2.2 19.2 29.1 20.4 30.9.6.9 1.3 1.8 1.6 2.1.3.3.9 1.2 1.2 2 4.1 8.8 33.6 51.1 40.2 57.5 7.4 7.3 12.2 9 25.3 9.4 5.1.1 10.3.4 11.5.7 1.2.3 8.5.7 16.2.9 7.7.3 15.4.7 17 .9 1.7.3 13.5.5 26.3.6 13.5.1 23.5.6 23.8 1.2.3.5-.1 1.7-1 2.7-2.7 3-2.1 5.1 3.8 13.5 1 1.5 1.7 2.8 1.5 3.1-.5.4-3.6 1-10.7 2.1-4.7.7-9.1 4.2-9.3 7.3 0 1.3.1 20.7.3 27.1.1 6 4.8 12.5 9.7 13.5 1.1.2 4.3-.3 7.3-1 4-1 13.6-1.4 38.3-1.4 18.2 0 34.1-.1 35.5-.3 1.4-.2 3 0 3.6.4.9.6 1.1 8.7.7 29.6-.3 15.8-.6 35.4-.6 43.7-.2 16.8.2 16.1-7.7 13.8-2.5-.7-6.2-1.4-8.2-1.7-2.1-.2-4.1-.7-4.6-1-.5-.3-1.9-.7-3.3-1-1.3-.2-4.6-1-7.4-1.6-8.3-1.9-8.8-2-13-2.5-2.2-.2-5.7-.7-7.8-1.1-5-.8-7.2-1.1-13.7-1.9-3-.3-7.5-1.1-9.8-1.6-2.4-.5-7.6-1.2-11.5-1.4-11.3-.8-17-1.6-21.5-2.9-.9-.3-4.6-.8-8.2-1.1-3.6-.3-7.2-.8-8-1-.8-.3-4.4-.7-8-1-13.6-1.1-17.6-1.6-21-2.5-1.9-.5-6.1-1.2-9.3-1.5-9.9-1.1-10.7-1.4-29.7-11.5-4.1-2.2-7.8-4-8.2-4-1.7 0-22.9-9.9-23.8-11.1-.6-.7-13.1-7.3-17-8.9-2.7-1.1-3.9-1.8-11.3-6.8-5.1-3.5-10.3-6.6-15.2-9-1.6-.9-3.2-1.8-3.5-2.1-.3-.4-2.2-1.5-4.3-2.6-5.3-2.7-7.3-6-8.1-12.8-.3-3.2-.8-6.2-1.1-6.7-.5-.8-.8-2.7-2-15-.7-6.9-1.1-9.9-2.1-15.2-.4-2.4-.8-6.6-.9-9.3-.1-2.8-.6-8.4-1.1-12.5-1-9.3-1.1-62.3-.1-74.5.4-5 .9-12.6 1.1-17 .3-7.5.9-13 2.1-21.5.3-1.9.8-6.9 1.1-11 .3-4.1.7-8.9.9-10.5.1-1.7.3-3.6.4-4.3.2-2.8 2.8-.2 9.6 9.9zm-24.1 53.2c-.8 10.9-.8 69 0 78.7 1.1 14.5 1.6 18.6 2.5 23.6.5 2.7 1.2 8.3 1.6 12.4.3 4.1.8 8.2 1 9 .4 1.3 1.4 6.7 1.6 8.8.3 1.9-.2 3.2-1.3 3.2-1 0-10.3-6.7-13.5-9.7-.7-.6-1.6-1.3-2-1.5-.5-.1-1.8-1.8-3.1-3.6-2.1-3-2.4-4.4-2.2-13 .1-10 .1-10.7 1.9-25.2.6-4.7 1.3-11.2 1.6-14.5.3-3.3.8-8 1.1-10.5.3-2.5.8-5.7.9-7.2.2-1.4.7-6.6 1-11.4.3-4.8.8-9 1-9.4.2-.3.6-3.1.9-6.1.6-6.7 2.2-16.4 2.6-16.4.4 0 1.9-9.6 2.6-16.5.3-3.7.5-3.8 1.4-.7.5 1.6.6 6.1.4 10zM354.7 637c1.4 1.1 3.2 2 3.9 2 .8 0 1.4.4 1.4 1 0 .5.5 1 1 1 .6 0 4.3 2.2 8.3 4.9 4 2.6 9.5 5.8 12.2 7.1 8.2 3.7 10.9 5.2 13.3 7.3 1.2 1.1 2.2 1.7 2.2 1.3 0-.4 1.2.1 2.8 1.2 1.5 1 4.5 2.6 6.7 3.6 2.2.9 4.9 2.2 6 2.8 1.1.6 3.3 1.4 4.9 1.7 1.6.4 3.1 1.1 3.3 1.7.4 1.1-39.8 1-50.2-.1-3.3-.4-7-.8-8.3-.9-3.2-.3-5.4-4.5-8.1-15.6-1.2-5.2-2.9-11-3.7-12.9-3-7.3-1-10.3 4.3-6.1zm49.4 44.4c6.9.3 13.7.9 15.1 1.5 1.4.5 2.8.8 3 .5.3-.2 3.8.3 7.9 1.1 4 .9 10 1.8 13.2 2 5.9.5 10.2 2.3 14.5 5.9 2.7 2.4 2.8 3.6.2 3-1.1-.2-3-.6-4.2-.9-1.3-.3-5.4-.7-9.3-1-15.6-1.2-18.8-1.8-37.5-6-4.1-1-8.4-1.9-9.5-2-1.1-.2-2-.4-2-.6 0-.1-1.6-.3-3.5-.4-1.9-.1-4.4-.5-5.5-.8-1.1-.4-3.5-.8-5.2-.9-6.6-.5-.6-2.5 6.2-2.2 2.2.1 9.6.5 16.6.8zm99.2 13.1c.7.3 3.2.7 5.7 1 2.5.3 6.3.8 8.5 1.1 2.2.3 5.1.7 6.5.8 1.4.2 4.5.6 7 .9 2.5.4 7.2.9 10.5 1.2 3.3.3 9.6 1.2 14 2 8 1.4 13.1 2.2 21.4 3.1 2.4.3 7.3 1.2 11 2 3.6.8 7.5 1.7 8.6 1.9 2.8.5 6.3 1.3 11.5 2.6 2.5.6 5.5 1.3 6.7 1.4 1.2.2 4.5 1.1 7.3 2 4.1 1.4 5 2.1 5 4 0 1.3-.5 2.7-1.2 3.1-1.8 1.1-7.5.6-10.7-1.1-1.7-.8-4.6-1.8-6.6-2.1-2-.3-5.5-1.2-7.7-2-2.1-.7-4.2-1.3-4.6-1.2-.4.1-2-.4-3.5-1-1.5-.7-4-1.4-5.5-1.7-1.5-.3-3.6-.7-4.7-.9-2.1-.4-8-1.2-16-2.2-2.7-.3-5.3-.8-5.6-1-.3-.2-1.9-.6-3.5-.8-1.6-.3-4-.8-5.4-1.1-1.4-.3-3.6-.8-5-1-1.4-.2-4-.6-5.8-1-1.8-.3-9-.8-16-1-7-.3-13.8-.7-15.2-1-1.4-.3-4.3-.7-6.5-1-7.2-.9-8.8-1.4-11.1-3.6-3.7-3.5-2.1-5.2 4.3-4.4 3 .3 6 .8 6.6 1z"/><path d="M848.6 306.7c-1.2 1.2-.6 5.2 1 6.7 2.1 2.1 3.3 1.2 2.9-2.2-.2-1.5-.4-3-.4-3.3-.1-1-2.8-1.9-3.5-1.2zM833.3 348.5c-.8 2.3 1.3 3.4 4.6 2.6 3.7-1 3.3-3.4-.7-3.8-2.3-.3-3.4 0-3.9 1.2zM842 368.7c-1.4.9-2.6 1.7-2.8 1.8-.8.6-.9 4.3-.2 5.5.7 1.1 1.1 1.1 2.4.1.9-.8 1.6-2.1 1.6-3 0-.9.5-2.2 1.1-2.8 2.1-2.1.5-3.4-2.1-1.6zM816.6 415.9c-.7 1.1.3 4.1 1.4 4.1.4 0 1.1 1.1 1.4 2.5.6 2.4 4.2 5.2 5.3 4.1.3-.3-.7-3-2.2-6.1-2.7-5.2-4.6-6.7-5.9-4.6zM800.4 422.4c-.4 1.6-.1 3.1.7 3.9.8.8 3.2 3.9 5.4 7 3.8 5.3 7.6 8.3 8.9 7 1.1-1.2.6-2.1-3.9-6.9-2.5-2.7-5.2-6.3-6-8-.8-1.7-2.1-3.7-2.9-4.4-1.3-1-1.6-.7-2.2 1.4zM207 473c0 .6-.6 1-1.2 1-.7 0-4 2.9-7.3 6.4-4.9 5.2-6.6 8-8.7 13.9l-2.6 7.5 2 2.2c1.9 2 2 2.8 1.2 7-.6 2.6-1.1 9.7-1.3 15.6-.1 6-.5 11.2-.8 11.7-.3.5-1.6-1-2.9-3.3-1.3-2.3-2.2-4.6-1.9-5 .3-.4-.4-1.9-1.5-3.3s-2-3-2-3.6c0-.6-1-1.5-2.1-2.2-1.7-.9-2.4-.8-3.6.4-1.3 1.3-1.2 1.9.6 5.4 1.1 2.3 1.8 4.2 1.6 4.5-.3.2.4 2.8 1.5 5.6 1.1 2.9 1.8 5.2 1.5 5.2-.3 0 .5 2.5 1.6 5.5 1.1 3.1 1.9 6.1 1.6 6.8-.2.7-2.9 2.1-5.8 3.1-3 1-6.5 3-7.8 4.4-2.4 2.4-2.5 3.1-2.3 13.1.1 5.8.4 11.7.7 13.1.3 1.4 1 5.4 1.6 9 .6 3.6 1.7 8.1 2.4 10 .7 1.9 2.8 8.2 4.6 13.9 2.9 9.2 3.6 10.6 7 13.1 2.1 1.5 5.8 3.3 8.3 4 5.7 1.6 6.5 2.5 7.2 8.6.3 2.7 1.2 6.2 1.9 7.9.7 1.6 1.5 4.6 1.6 6.5.2 1.9.9 4.4 1.5 5.5.7 1.1 1.4 3.8 1.5 6 .2 2.2.9 5.4 1.6 7.1.7 1.8 1.5 4.6 1.8 6.4.3 1.8 1 4 1.5 4.9.5.9 1.1 3.7 1.4 6.1.3 2.5 1.2 6.3 2 8.5.9 2.2 1.5 5.1 1.6 6.5 0 1.4.7 3.6 1.5 5s1.5 3.6 1.5 5 .7 3.4 1.5 4.4c.8 1.1 1.5 3.1 1.5 4.6 0 1.4.7 3.5 1.5 4.7.8 1.2 1.7 3.6 1.9 5.5.3 1.8 1 4.6 1.7 6.3.6 1.6 1.3 4.1 1.5 5.5.1 1.4.9 4.3 1.8 6.5.8 2.2 1.5 4.8 1.6 5.8 0 1.9 3.5 12.8 5 15.5.5.9 1.8 4.3 2.9 7.5 1.2 3.2 2.8 6.9 3.7 8.2.9 1.4 1.3 2.5.9 2.5-.3 0 .3 1.3 1.4 2.9 1.2 1.6 2.1 3.6 2.1 4.4 0 1.4 3.9 7.1 8.2 11.8 3.6 4 9.7 6.5 18.2 7.3 2.6.3 5.3.9 6 1.4.6.4 3.6.9 6.6 1 3 .1 7.5.9 10 1.6 2.5.8 9.2 1.7 15 2 5.8.3 11.5.8 12.8 1.1 1.2.3 3.2.7 4.5 1 1.2.3 9.8.8 19.1 1 9.2.2 17.4.9 18.1 1.5.6.5 5.5 1.1 10.7 1.3 5.2.2 10 .7 10.6 1.1 1.4.8 6 1.5 16.2 2.2 9.6.7 10 .8 10 4.1 0 2.5-.7 5.8-4.5 21.8-.8 3.3-1.7 8.2-2 10.9-.3 2.7-1 5.7-1.5 6.7-.5.9-1.2 3.8-1.4 6.3-.3 2.5-1.2 5.9-2.1 7.5-.8 1.7-1.5 3.4-1.4 3.8.2 1.9-5.2 16.9-8 22.3-.5.9-1.2 3-1.6 4.8-.3 1.8-1.1 3.2-1.6 3.2s-.9.8-.9 1.8-.6 2.6-1.4 3.7c-.7 1.1-1.7 3.1-2.1 4.5-.8 2.6-12.4 26.5-15.3 31.5-.9 1.6-3.5 6.1-5.6 10-4 7.1-18.7 28.7-21.5 31.5-.8.8-2.9 3.7-4.7 6.5-1.7 2.7-4.1 5.9-5.1 7-1 1.1-4.6 5.6-8 10-3.3 4.4-6.9 8.9-7.9 10-3 3.3-5.4 8.1-5.4 10.9 0 2.9 3.7 8.8 7.4 11.7 3 2.3 10.1 4.6 13.6 4.4 6.1-.4 12-1.8 13.1-3.1.6-.8 1.7-1.4 2.3-1.4.7 0 1.9-1.5 2.7-3.3 1.5-3 1.6-6.5.6-13-.2-1.5 0-3 .6-3.4.5-.3 6-.7 12.1-.9 6.1-.2 16.5-.7 23.1-1 13.3-.7 82.8-.8 108.4-.2 17.6.4 18.7.8 15.7 5.3-1.4 2.2-2.1 6.6-1.7 12.1.1 2.6 5.7 7.1 9.7 7.9 1.6.3 4 .8 5.4 1.1 1.4.3 3.2.7 4 .9 2 .3 9.1-2.5 12.2-5 3.9-3.2 5.1-6.5 5.2-13.8 0-6.4-.2-6.9-3.7-10.5-2-2.1-4-5.2-4.3-7-.4-1.8-1.4-3.8-2.3-4.5-2-1.5-15.1-17.3-17.7-21.2-1-1.7-3.1-4.4-4.7-6-3.8-4.1-17.6-24.7-21-31.5-1.6-3-3.2-6.2-3.6-7-3.4-6.3-4.3-8.2-4.6-9.8-.5-2-3.2-9.8-4.4-12.7-1.1-2.5-4.8-15-5.7-19-.4-1.7-1-3.5-1.3-4-.4-.6-.8-2.6-1-4.5-.1-1.9-.8-5.5-1.6-8s-1.6-6.1-1.8-8.1c-.3-2-.7-4.1-1.1-4.7-.6-1-1.5-7.8-2-16.4-.2-3.1-.6-6-.9-6.5-1.8-3-3.1-30.9-1.5-31.9.6-.4 4.5-.7 8.7-.8 4.2 0 8.2-.5 8.9-.9 3.2-2.1-1.3-8.4-5.1-7.2-3.2 1-10.9.6-12.4-.7-1.4-1.2-1.8-5.4-.5-6.2.5-.3 7.5-.7 15.5-1 8.1-.3 15.1-.8 15.7-1.1 1.5-.9 4.7-1.4 12.3-1.9 3.7-.3 7.2-.8 7.9-1.2 1.2-.7 3-1 11.3-2 2.8-.3 6.9-1.2 9.3-2 2.3-.8 5.2-1.4 6.3-1.4 1.1 0 2.9-.5 4.1-1.1 1.1-.6 2.9-1.2 4.1-1.5 6.2-1.1 11.6-2.8 16-5 1.6-.8 3.3-1.4 3.8-1.4s2.6-.7 4.7-1.7c2-.9 3.9-1.7 4.2-1.7 1.5-.3 9-5.3 11.8-8 7.7-7.1 13.8-19.9 13.6-28.6 0-4.1-2.2-12.1-4.6-17.6-1.7-3.7-11.8-13.4-14.1-13.4-.5 0-3.3-2.1-6.3-4.8-3.1-2.6-5.8-4.6-6.2-4.5-.4.1-1.7-.5-3-1.3-1.3-.9-4.5-1.9-7-2.4-8.6-1.7-19.7-4.1-23.2-5-1.9-.5-5.3-1.1-7.5-1.4-2.2-.2-6-.9-8.5-1.4-2.5-.6-6.8-1.4-9.6-1.7-2.8-.3-5.9-.7-7-.9-19.5-3.7-83.1-4-99.4-.6-3 .6-8.3 1.3-11.8 1.5-3.5.2-6.9.8-7.5 1.4-.7.5-3.8 1.2-6.9 1.5-3.1.3-6.9 1.1-8.5 1.7-1.5.6-4.8 1.3-7.3 1.6-2.5.3-6.2 1.2-8.4 1.9-2.1.8-4.9 1.4-6.1 1.4-1.3 0-4.3.8-6.7 1.8-2.4 1.1-4.8 1.7-5.5 1.5-.6-.2-2.2.2-3.5 1.1-1.3.8-3.8 1.7-5.7 2-1.9.2-3.7.9-4 1.5-.3.5-2 1.3-3.6 1.7-1.7.4-3.4 1-4 1.4-.5.4-2 1.1-3.3 1.4-4.3 1.4-17.5 9.4-21.4 13.1-4.4 4.2-8.7 10.4-10.8 15.5-1.9 4.7-2.1 12.6-.4 15.9.8 1.4 1.4 3.6 1.4 4.8 0 1.3.4 2.3.9 2.3s1.4 1.3 2.1 3c1.9 4.6 9.9 11.3 18 15.2 8.4 4 18.8 7.8 21.4 7.8.9 0 2.9.6 4.4 1.4 1.5.7 4.8 1.6 7.4 1.9 2.6.3 5.5 1 6.5 1.5s5.2 1.2 9.3 1.5c4.1.4 9.3 1.1 11.5 1.6 3.3.8 15.2 2 22.5 2.3.8 0 3.5.5 6 1s8.2 1.1 12.8 1.2c9.5.3 12 1.7 8.5 4.5-2.4 2-7.5 2.1-13.4.3-1.9-.6-6.8-1.3-10.9-1.6-4.1-.2-10.6-1-14.5-1.6-3.8-.7-11.5-1.4-17-1.6-17.5-.7-24.5-1.3-25.8-2.1-.6-.4-4.6-.9-8.7-1-10.4-.4-14.6-.8-21-2.1-3-.7-7.5-1.4-10-1.7-5.6-.5-7.2-.9-8.6-1.7-.5-.4-3.6-.8-6.7-.9-6.4-.3-13.2-3.1-16-6.5-1-1.3-2.4-3-3.2-3.7-2.9-3-15.9-32.4-17-38.7-.3-1.5-1.1-4.3-1.9-6.2-.9-2-1.3-3.8-1-4.1.3-.3-.1-1.8-.9-3.4-.9-1.6-1.8-4.9-2.2-7.3-.4-2.4-1.1-5.3-1.7-6.4-.6-1-1.2-3.3-1.5-5-.3-1.7-1.1-4.3-1.9-5.8-.8-1.5-1.4-3.6-1.4-4.8 0-1.1-.6-3.1-1.4-4.3-.8-1.2-1.6-3.6-1.8-5.2-.2-1.7-.9-4-1.6-5.2-.7-1.2-1.4-4.1-1.7-6.4-.3-2.2-.9-4.9-1.4-5.8-.5-.9-1.2-3.8-1.5-6.5-.4-2.7-1.3-6.1-2.1-7.7-.8-1.5-1.5-3.8-1.5-4.9 0-1.2-.4-3-1-4-.5-1-1.3-3.6-1.6-5.7-1.2-7.7-1.2-8.4.3-7.9.8.3 1.7.6 1.9.6.2 0 .4.7.4 1.5 0 2.3 10.6 23.4 15.2 30.2 1.5 2.3 2.8 4.6 2.8 5.2 0 .6.5 1.1 1 1.1.6 0 1 .4 1 1 0 3.6 15.7 17.4 24.3 21.5 8.3 3.9 19.8.6 24.6-7.1 1.6-2.4 3.3-5.7 3.8-7.2.6-1.5 1.6-4.3 2.3-6.2.7-1.9 1.5-4.9 1.7-6.5.3-1.7.9-3.5 1.3-4 .9-1.2 1.8-5.2 2.5-11.7.7-6.4 1.6-12.2 2.1-12.9.6-1 1.6-27.1 1.6-40.9 0-21.1-1.9-40.3-5.4-53.5-.6-2.2-1.3-5.6-1.5-7.5-.3-1.9-1.1-5-1.9-6.9-.8-1.8-1.4-4.3-1.4-5.5 0-1.1-.6-3.3-1.4-4.8-.8-1.5-1.7-4.1-2.1-5.8-.4-1.7-1.3-4.3-2.1-5.8s-1.4-3.2-1.4-3.8c0-.7-.7-2.5-1.5-4-.8-1.6-1.5-3.9-1.5-5.1 0-1.2-.3-2.3-.7-2.5-.5-.2-1.9-3-3.2-6.3-2.8-6.9-14.9-25.4-19-29.1-3.3-2.9-12.1-8.6-12.1-7.8 0 .3-1.2-.4-2.6-1.5-1.5-1.2-3.5-2.1-4.4-2.1-1 0-2.9-.6-4.4-1.4-3-1.5-25.6-2.1-25.6-.6zm4 186.2c0 1.9-.2 2-1 .8-1.3-1.9-1.3-3 0-3 .6 0 1 1 1 2.2zm227.1 168.9c12.4.2 17.2 1.7 14.8 4.5-1 1.2-3.8 1.4-15.3 1.2-12.6-.3-14.1-.5-14.4-2.1-.4-2 1.6-4.9 2.8-4.2.4.3 5.9.6 12.1.6zM816.5 477.2c-.8 3.8-.2 6.9 1.4 6.6 2.2-.4 3.2-5.5 1.4-7.3-1.9-2-2.2-1.9-2.8.7zM617.5 518.2c1.2 6.8 3.5 11.9 5.4 11.6 4.2-.8.4-15.8-4-15.8-1.9 0-2 .4-1.4 4.2zM632.2 518.2c-1.8 1.8-1.6 7.7.3 7.4 1.9-.3 5.3-5.6 4.7-7.4-.5-1.5-3.4-1.6-5 0zM648.7 519.8c-1.5 1.5-2.7 3.1-2.7 3.5 0 .3-1.3 2.7-2.9 5.3-3 4.7-3.2 7.4-.4 7 1.5-.2 5.2-4.4 5.3-5.9 0-.4.4-1.3 1-2 4-4.9 5.6-7.4 5.5-8.7 0-2.6-3-2.2-5.8.8zM604.7 518.8c-1.7 2.7 4.5 12.2 8 12.2 1.7 0 3-3 1.6-3.9-.6-.3-2.2-2.5-3.7-4.9-2.4-3.9-4.8-5.3-5.9-3.4zM647.4 539.4c-1.9 2.7-.9 3.6 4 3.6 5.3 0 7.4-1.9 4.8-4.3-2.3-2-7.1-1.7-8.8.7z"/></svg>